<svg xmlns="http://www.w3.org/2000/svg" viewBox="0 0 587 267.69"><defs><style>.cls-1{fill:#8eafdc;}</style></defs><g id="Layer_2" data-name="Layer 2"><g id="Layer_1-2" data-name="Layer 1"><path class="cls-1" d="M563.94,115.43c-45.22-59.16-118-18.2-118-18.2C442.43,34,382.85,33,382.85,33c-38-50.81-84.37-30.2-99.65-21.29h0c-3.29,1.93-5.14,3.31-5.14,3.31-1.58-.5-3.15-1-4.68-1.38h0c-11.65-3.22-21.84-4.14-30.76-3.39h-.09c-30.15,2.54-45.66,24-53,39.56a87.5,87.5,0,0,0-5.41,14.52s0,0,0,.06c-.14.49-.34,1.33-.39,1.58-.7-.07-1.38-.13-2.06-.16l-1-.06h-.32c-26.44-1.52-29.53,24.53-29.12,24.66-16.65-9.25-30.19-2.1-35.5,5.75C94.13,68.91,59,85.62,59,85.62,33.54,78.05,12.56,83.56,0,94V267.69H587V112.32C575.68,109.45,563.94,115.43,563.94,115.43Z"/></g></g></svg>