<svg width="100" height="77" viewBox="0 0 100 77" fill="none" xmlns="http://www.w3.org/2000/svg">
<path d="M96.2637 77C95.6743 77.0011 95.0932 76.8624 94.5678 76.5954C94.0424 76.3284 93.5879 75.9407 93.2414 75.4641L86.956 66.838C83.6299 62.2783 79.274 58.5685 74.2429 56.0106C69.2118 53.4527 63.6476 52.1189 58.0035 52.1179H53.0134V57.4314C53.0134 62.3962 50.2319 66.8047 45.7483 68.9384C43.5777 69.9873 41.1522 70.3929 38.7584 70.1075C36.3646 69.8221 34.1025 68.8575 32.2393 67.3278L4.71493 44.9945C3.24216 43.7997 2.05463 42.2912 1.23895 40.5792C0.423272 38.8671 0 36.9946 0 35.0982C0 33.2018 0.423272 31.3292 1.23895 29.6172C2.05463 27.9051 3.24216 26.3967 4.71493 25.2018L32.2393 2.86855C34.1025 1.3388 36.3646 0.37424 38.7584 0.0888304C41.1522 -0.196579 43.5777 0.209091 45.7483 1.25791C50.2319 3.3916 53.0134 7.80013 53.0134 12.7649V20.9261L66.3812 22.5534C75.655 23.6885 84.1931 28.1767 90.3859 35.1719C96.5787 42.1671 99.9983 51.186 100 60.5282V73.264C100 74.2548 99.6063 75.2051 98.9056 75.9057C98.2049 76.6064 97.2546 77 96.2637 77Z" fill="white"/>
</svg>
