<svg xmlns="http://www.w3.org/2000/svg" viewBox="0 0 39.07 80.99"><defs><style>.cls-1{fill:#f8a79e;}.cls-2{fill:#ddeaf8;}.cls-3{fill:#8ad3d7;}.cls-4{fill:#edd0d6;}</style></defs><g id="Layer_2" data-name="Layer 2"><g id="Layer_1-2" data-name="Layer 1"><path class="cls-1" d="M39.06,13.35v2.48H0V13.35A7.53,7.53,0,0,1,7.53,5.83h9.86l0-2.95H12.53s-2.12-1.17,0-2.64l8-.09L32.2,0h1s2.29,1.06-.65,2h-.06l-9.69.18V5.83h8.69A7.53,7.53,0,0,1,39.06,13.35Z"/><path class="cls-2" d="M0,15.82V73.46A7.53,7.53,0,0,0,7.53,81h24a7.54,7.54,0,0,0,7.54-7.53V15.82ZM34.35,69.59A6.35,6.35,0,0,1,28,75.93H11.53A6.45,6.45,0,0,1,7,74a3,3,0,0,1-.3-.32,2.48,2.48,0,0,1-.25-.3,5,5,0,0,1-.49-.74c-.07-.11-.12-.23-.19-.35v0A1.87,1.87,0,0,1,5.57,72a1.06,1.06,0,0,1-.09-.25,4.58,4.58,0,0,1-.25-.82l-.09-.47a8.24,8.24,0,0,1-.07-1V22.4H34.35Z"/><path class="cls-3" d="M34.35,22.41V69.59A6.35,6.35,0,0,1,28,75.94H11.53a6.47,6.47,0,0,1-6.47-6.47V22.41Z"/><path class="cls-4" d="M32.53,2v.08a6.58,6.58,0,0,1-1.16,3.75H22.84V2.18Z"/></g></g></svg>