<svg xmlns="http://www.w3.org/2000/svg" viewBox="0 0 40.26 40.26"><defs><style>.cls-1{fill:#f79e93;}.cls-2{fill:#fabdb0;}</style></defs><g id="Layer_2" data-name="Layer 2"><g id="Layer_1-2" data-name="Layer 1"><path class="cls-1" d="M40.26,20.13A20.13,20.13,0,0,0,20.13,0C19.2,0,19,1.4,19.84,1.88a13.08,13.08,0,1,1-18,18C1.4,19,0,19.2,0,20.13a20.13,20.13,0,0,0,40.26,0Z"/><path class="cls-2" d="M34.39,17.26A16.87,16.87,0,0,1,.77,19.34a1.12,1.12,0,0,1,1.12.5A13.07,13.07,0,1,0,19.83,1.89,1.14,1.14,0,0,1,19.41.5,16.87,16.87,0,0,1,34.39,17.26Z"/></g></g></svg>