<svg width="419" height="687" viewBox="0 0 419 687" fill="none" xmlns="http://www.w3.org/2000/svg">
<path d="M418.567 343.38C418.573 388.448 409.701 433.076 392.458 474.715C375.215 516.354 349.939 554.188 318.073 586.058C286.208 617.928 248.376 643.208 206.739 660.456C165.103 677.704 120.476 686.582 75.4083 686.582C116.026 642.329 213.788 506.951 75.4083 343.38C72.9146 340.422 70.4631 337.463 68.1385 334.547C-89.134 138.77 75.366 0.178958 75.366 0.178958C120.437 0.173406 165.068 9.04679 206.71 26.2923C248.352 43.5378 286.188 68.8177 318.058 100.688C349.929 132.558 375.209 170.395 392.454 212.036C409.7 253.678 418.573 298.309 418.567 343.38Z" fill="#F8B1AD"/>
</svg>
