<svg xmlns="http://www.w3.org/2000/svg" viewBox="0 0 587 267.58"><defs><style>.cls-1{fill:#8eafdc;}</style></defs><g id="Layer_2" data-name="Layer 2"><g id="Layer_1-2" data-name="Layer 1"><path class="cls-1" d="M563.94,115.38C518.72,56.25,446,97.19,446,97.19,442.43,34,382.85,33,382.85,33c-38-50.79-84.37-30.19-99.65-21.28h0c-3.29,1.93-5.14,3.31-5.14,3.31-1.58-.5-3.15-1-4.68-1.38h0c-11.65-3.22-21.84-4.14-30.76-3.39h-.09c-30.15,2.54-45.66,24-53,39.54-.15.29-.28.58-.41.86a91.26,91.26,0,0,0-4.74,12.69c-.1.35-.19.68-.26,1,0,0,0,0,0,.06-.11.4-.19.73-.25,1s-.14.6-.14.6c-.7-.07-1.38-.13-2.06-.16l-1-.06h-.32l-1,0c-26.71-.32-28.14,24.67-28.14,24.67a42.2,42.2,0,0,0-4.55-2.1,31.69,31.69,0,0,0-9.69-2.25,24.4,24.4,0,0,0-21.26,10.1C94.13,68.88,59,85.58,59,85.58c-20.35-6-35.72-3.28-45.66.6C4.54,89.6,0,93.93,0,93.93V267.58H587V112.27C575.68,109.4,563.94,115.38,563.94,115.38Z"/></g></g></svg>