<svg xmlns="http://www.w3.org/2000/svg" viewBox="0 0 586.5 233.58"><defs><style>.cls-1{fill:#8eafdc;}</style></defs><g id="Layer_2" data-name="Layer 2"><g id="Layer_1-2" data-name="Layer 1"><path class="cls-1" d="M483.64,187.35l-.53-.2-.34.73-.76,1.6L473.27,208v0l-.13.29-1.47,3.11.08,0c.94.33,1.95.7,2.94,1.07l1.32-3.49,8.14-21.52Zm13,4.74c-.3-.1-.62-.2-.94-.32-.93-.32-1.93-.69-2.92-1.05l-8.11,21.43,0,.08-.09.24-1.23,3.25c1.64.61,3.31,1.22,4.57,1.8l1.22-3.48,7.64-21.92Zm66.81-76.71C518.28,56.25,445.58,97.19,445.58,97.19,442.05,34,382.52,33,382.52,33,344.59-17.76,298.23,2.84,283,11.75c-3.3,1.94-5.15,3.32-5.15,3.32-1.58-.5-3.14-1-4.67-1.38-11.64-3.22-21.83-4.14-30.75-3.39h-.09c-30.12,2.54-45.62,24-53,39.54-.15.29-.28.58-.41.86a91.26,91.26,0,0,0-4.74,12.69c-.1.35-.19.68-.26,1,0,0,0,0,0,.06-.11.4-.19.73-.25,1s-.14.6-.14.6c-.7-.07-1.38-.13-2.05-.16l-1-.06h-.32l-1,0c-26.69-.32-28.12,24.67-28.12,24.67a43,43,0,0,0-4.54-2.1,31.69,31.69,0,0,0-9.69-2.25,24.38,24.38,0,0,0-21.24,10.1C94.05,68.88,58.93,85.58,58.93,85.58c-20.33-6-35.69-3.28-45.62.6C4.54,89.6,0,93.93,0,93.93V233.58H586.5V112.27C575.19,109.4,563.46,115.38,563.46,115.38Z"/></g></g></svg>