<svg xmlns="http://www.w3.org/2000/svg" viewBox="0 0 1143.73 286.26"><defs><style>.cls-1{fill:#8eafdc;}</style></defs><g id="Layer_2" data-name="Layer 2"><g id="Layer_1-2" data-name="Layer 1"><path class="cls-1" d="M1115.27,286.26H16.91S-52,64.14,88.42,78.7l.45,0s72.76-41,118,18.2c0,0,11.74-6,23.06-3.12V94c12.56-10.4,33.55-15.92,59-8.35,0,0,35.15-16.71,56.7,10.6,5.31-7.85,18.85-15,35.5-5.76-.41-.13,2.68-26.18,29.12-24.66h.32l1,.06c.68,0,1.36.09,2.06.16.05-.25.26-1.09.39-1.58,0,0,0,0,0-.06a87.45,87.45,0,0,1,5.41-14.51c7.35-15.52,22.86-37,53-39.56h.09c8.92-.75,19.11.17,30.76,3.39h0c1.53.41,3.1.88,4.68,1.38,0,0,1.85-1.38,5.14-3.31h0C528.39,2.83,574.79-17.77,612.76,33c0,0,59.58,1,63.11,64.19,0,0,72.76-41,118,18.19,0,0,11.74-6,23.06-3.11v.22c12.56-10.4,33.55-15.92,59-8.35,0,0,35.15-16.71,56.7,10.59,5.31-7.85,18.85-15,35.5-5.75-.41-.13,2.68-26.18,29.12-24.66h.25C1001,84.11,1220.3,68.91,1115.27,286.26Z"/></g></g></svg>