<svg xmlns="http://www.w3.org/2000/svg" viewBox="0 0 94.33 63.53"><defs><style>.cls-1{fill:#f79e93;}.cls-2{fill:#fabdb0;}</style></defs><g id="Layer_2" data-name="Layer 2"><g id="Layer_1-2" data-name="Layer 1"><path class="cls-1" d="M45.8,16.73c-1,2.48-1.43,3.72-2.25,4.53A6.09,6.09,0,0,1,39.33,23a10.3,10.3,0,0,1-2.72-.59l-.11,0c-1.18-.37-2.53-.86-3.86-1.34L23.18,45.62c1.64.6,3.31,1.2,4.57,1.77a7.67,7.67,0,0,1,1.8,1,5.77,5.77,0,0,1,2,4c.06,1.14-.42,2.38-1.37,4.85S28.77,61,28,61.78a5.83,5.83,0,0,1-2.25,1.39,6,6,0,0,1-2,.36,7,7,0,0,1-2.12-.36c-.81-.25-1.81-.61-3.13-1.08L7,57.91c-2.68-1-4-1.46-4.93-2.25a5.78,5.78,0,0,1-2-4c-.07-1.14.41-2.37,1.36-4.85s1.43-3.71,2.25-4.53a6.11,6.11,0,0,1,4.23-1.75,14.2,14.2,0,0,1,3.66.89l.08,0c.94.32,1.95.69,2.94,1.05L24,17.91l-.5-.18L23,17.54c-2.34-.86-4.56-1.71-5.34-2.4a5.74,5.74,0,0,1-2-4C15.54,10,16,8.76,17,6.28s1.43-3.71,2.25-4.53A6.09,6.09,0,0,1,23.44,0c1.22,0,2.56.47,5.25,1.45L40.22,5.63c2.68,1,4,1.46,4.93,2.25a5.72,5.72,0,0,1,2,4C47.23,13,46.75,14.26,45.8,16.73Z"/><path class="cls-2" d="M32.64,21.05,23.18,45.62c1.64.6,3.31,1.2,4.57,1.77l-16.16-6c.94.32,1.95.69,2.94,1.05L24,17.91c5.12,1.85,9.5,3.41,12.51,4.48C35.32,22,34,21.53,32.64,21.05Z"/><path class="cls-1" d="M48.53,16.73c1,2.48,1.43,3.72,2.25,4.53A6.09,6.09,0,0,0,55,23a10.3,10.3,0,0,0,2.72-.59l.11,0c1.18-.37,2.53-.86,3.86-1.34l9.46,24.57c-1.64.6-3.31,1.2-4.57,1.77a7.67,7.67,0,0,0-1.8,1,5.77,5.77,0,0,0-2,4c-.06,1.14.42,2.38,1.37,4.85s1.43,3.72,2.24,4.53a5.83,5.83,0,0,0,2.25,1.39,6,6,0,0,0,2,.36,7,7,0,0,0,2.12-.36c.81-.25,1.81-.61,3.13-1.08l11.53-4.18c2.68-1,4-1.46,4.93-2.25a5.78,5.78,0,0,0,2-4c.07-1.14-.41-2.37-1.36-4.85s-1.43-3.71-2.25-4.53a6.11,6.11,0,0,0-4.23-1.75,14.2,14.2,0,0,0-3.66.89l-.08,0c-.94.32-1.95.69-2.94,1.05L70.34,17.91l.5-.18.53-.19c2.34-.86,4.56-1.71,5.34-2.4a5.74,5.74,0,0,0,2-4c.07-1.14-.41-2.37-1.36-4.85s-1.43-3.71-2.25-4.53A6.09,6.09,0,0,0,70.89,0c-1.22,0-2.56.47-5.25,1.45L54.11,5.63c-2.68,1-4,1.46-4.93,2.25a5.72,5.72,0,0,0-2,4C47.1,13,47.58,14.26,48.53,16.73Z"/><path class="cls-2" d="M61.69,21.05l9.46,24.57c-1.64.6-3.31,1.2-4.57,1.77l16.16-6c-.94.32-1.95.69-2.94,1.05L70.34,17.91c-5.12,1.85-9.5,3.41-12.51,4.48C59,22,60.36,21.53,61.69,21.05Z"/></g></g></svg>