<svg width="58" height="59" viewBox="0 0 58 59" fill="none" xmlns="http://www.w3.org/2000/svg">
<path d="M57.2558 34.8224C57.6793 33.1368 57.8937 31.4055 57.8942 29.6675C57.902 26.999 57.3848 24.3551 56.3721 21.8861H54.85H54.0399C53.4507 21.8861 52.5914 21.8861 51.5849 21.8861C48.6018 22.141 45.6504 22.6835 42.7717 23.5062C41.8162 23.8223 40.8884 24.2163 39.9976 24.6844L39.2856 25.0527C38.3527 25.5191 37.2726 26.0591 36.1188 26.5746C32.467 28.2099 28.5081 29.0468 24.5068 29.0293C16.8868 29.0146 9.44342 26.7332 3.12423 22.4752L1.89675 21.5914H1.74946C0.651565 24.1684 0.0837711 26.94 0.0800391 29.7411C0.0785502 30.7761 0.15246 31.8098 0.301051 32.8341H1.40573H2.82965C3.71343 32.8341 4.9654 32.8341 6.46292 32.9813C10.2999 33.2173 14.1059 33.8174 17.8294 34.7734C19.1454 35.1548 20.4266 35.6475 21.6591 36.2462L22.5183 36.6389C23.5248 37.1052 24.5559 37.5717 25.6852 38.0381C29.0545 39.4362 32.6672 40.1538 36.3151 40.1492C40.0547 40.0894 43.7633 39.4603 47.3133 38.2836C48.9581 37.7681 50.5048 37.2281 51.9286 36.7126C53.3034 36.2216 54.6291 35.7306 55.8074 35.4115L57.2558 34.8224Z" fill="#F8AB9B"/>
<path d="M55.611 41.0329L53.5488 41.9166C52.1249 42.5302 50.5047 43.2175 48.6389 43.8803C44.652 45.4322 40.421 46.2634 36.1432 46.335C31.7985 46.3312 27.5136 45.3231 23.623 43.3893C22.371 42.8002 21.168 42.162 20.2106 41.5974L19.425 41.1802C18.4445 40.6123 17.418 40.1278 16.3563 39.7318C12.9703 38.6974 9.47874 38.0469 5.94735 37.7927C4.57258 37.6699 3.49239 37.6454 2.63315 37.6454H1.01288C2.66005 43.4053 6.05279 48.5128 10.7238 52.2645C15.3948 56.0161 21.1143 58.2273 27.0945 58.5935C33.0746 58.9596 39.0211 57.4627 44.115 54.309C49.209 51.1552 53.1997 46.4997 55.5374 40.9838L55.611 41.0329Z" fill="#F8AB9B"/>
<path d="M3.56604 15.7493L4.42529 16.633L4.6708 16.8784L5.72641 17.762C7.01088 18.7982 8.37333 19.7338 9.80163 20.5605C14.2165 23.1573 19.2375 24.5458 24.3595 24.5862C27.7146 24.5877 31.0159 23.7435 33.9583 22.1315C34.9894 21.5915 35.9223 21.0515 36.8552 20.4869L37.6408 20.0205C38.7743 19.3146 39.9749 18.7226 41.225 18.253C44.4001 17.1431 47.6969 16.4179 51.0448 16.0929C52.0155 15.9947 52.9905 15.9455 53.9662 15.9456H54.3835C51.9117 11.3654 48.2514 7.53569 43.7874 4.8592C39.3235 2.18271 34.2208 0.758353 29.0158 0.735747C23.8109 0.713141 18.696 2.09319 14.2089 4.7308C9.72185 7.36842 6.02846 11.1662 3.51697 15.7247L3.56604 15.7493Z" fill="#F8AB9B"/>
</svg>
