<svg width="48" height="93" viewBox="0 0 48 93" fill="none" xmlns="http://www.w3.org/2000/svg">
<path d="M47.0105 23.6683C47.0416 26.0805 46.7462 28.4858 46.1322 30.8187C45.5991 32.7869 44.8291 34.6831 43.8392 36.4658C42.9318 38.0766 41.8802 39.6017 40.6973 41.0224C39.5478 42.3959 38.4219 43.6987 37.3491 44.9012L37.2076 45.0544C36.2055 46.1155 35.2741 47.1353 34.4488 48.0961C33.557 49.1316 32.7673 50.2509 32.0909 51.4384C31.3826 52.6934 30.8397 54.0348 30.4758 55.4292C30.0654 57.0831 29.8693 58.7829 29.8922 60.4869V60.7816C29.8233 62.3441 29.1541 63.8197 28.0241 64.9009C26.8941 65.9822 25.3905 66.5857 23.8265 66.5857C22.2625 66.5857 20.7589 65.9822 19.6289 64.9009C18.4989 63.8197 17.8297 62.3441 17.7608 60.7816V60.4869C17.7364 57.7344 18.0673 54.9904 18.7453 52.3227C19.3766 49.9133 20.3157 47.5952 21.5394 45.4258C22.6072 43.5627 23.8507 41.8059 25.253 40.1795C26.1844 39.0949 27.2278 37.9395 28.3478 36.7664C29.3263 35.6641 30.352 34.4675 31.413 33.2119C32.1213 32.359 32.7507 31.4435 33.2935 30.4768C33.7934 29.5536 34.1813 28.574 34.4488 27.5589C34.767 26.2874 34.9118 24.9786 34.8792 23.6683C34.904 22.1273 34.6089 20.5978 34.0126 19.1765C33.4478 17.784 32.6146 16.5162 31.5604 15.4452C30.5157 14.3919 29.2739 13.5547 27.9057 12.9812C26.561 12.4002 25.1084 12.1109 23.6438 12.1323C22.1338 12.107 20.6354 12.4003 19.2463 12.993C16.416 14.1688 14.1684 16.4206 12.9979 19.2532C12.4061 20.6446 12.1129 22.1447 12.1373 23.6566V23.8216C12.1734 24.6407 12.0432 25.4585 11.7547 26.2259C11.4662 26.9933 11.0252 27.6943 10.4584 28.2867C9.89157 28.8791 9.21067 29.3505 8.45673 29.6726C7.70278 29.9946 6.89143 30.1607 6.07157 30.1607C5.25172 30.1607 4.44036 29.9946 3.68642 29.6726C2.93248 29.3505 2.25158 28.8791 1.68477 28.2867C1.11796 27.6943 0.676991 26.9933 0.388449 26.2259C0.0999072 25.4585 -0.0302283 24.6407 0.00588989 23.8216V23.6566C-0.0187347 20.4964 0.611486 17.3653 1.85684 14.4608C4.25067 8.77981 8.76564 4.25639 14.4421 1.85192C17.3477 0.603141 20.4813 -0.0272083 23.6438 0.000976562C26.7718 -0.0252606 29.8704 0.605315 32.7394 1.85192C38.3786 4.26185 42.8483 8.78657 45.1891 14.4549C46.4204 17.3692 47.0364 20.5047 47.0105 23.6683ZM30.8707 81.4957C31.2746 82.46 31.4826 83.4949 31.4826 84.5403C31.4826 85.5857 31.2746 86.6207 30.8707 87.585C30.0719 89.4705 28.571 90.9713 26.6855 91.7702L26.656 91.7879C25.7152 92.1904 24.7024 92.3969 23.6792 92.3951C22.118 92.4091 20.5879 91.9595 19.2824 91.1032C17.977 90.2469 16.9551 89.0225 16.3461 87.585C15.7339 86.156 15.5662 84.5759 15.8648 83.0503C16.1634 81.5247 16.9145 80.1244 18.0202 79.0317C18.7614 78.3209 19.6291 77.7551 20.5785 77.3635C21.5601 76.9512 22.6145 76.7407 23.6792 76.7445C24.7023 76.7436 25.7149 76.9502 26.656 77.3517L26.6855 77.3694C27.6146 77.7641 28.4637 78.3255 29.1907 79.0258C29.9091 79.7272 30.4802 80.5649 30.8707 81.4898V81.4957Z" fill="#F79E93"/>
<circle cx="23.0059" cy="84.501" r="8.5" fill="#FABDB0"/>
</svg>
