<svg xmlns="http://www.w3.org/2000/svg" viewBox="0 0 31.12 31.12"><defs><style>.cls-1{fill:#facba1;}.cls-2{fill:#f7a29a;}</style></defs><g id="Layer_2" data-name="Layer 2"><g id="Layer_1-2" data-name="Layer 1"><path class="cls-1" d="M10.49,27.8a4.26,4.26,0,0,0-2.42-.25,4.33,4.33,0,0,1-2.24-.14,3.59,3.59,0,0,1-1.27-.85,3.73,3.73,0,0,1-.85-1.27,4.32,4.32,0,0,1-.14-2.24,4.26,4.26,0,0,0-.25-2.42,3.86,3.86,0,0,0-1.08-1.51l-.36-.31c.06.06-.3-.24-.39-.31A3.45,3.45,0,0,1,0,15.56a3.44,3.44,0,0,1,1.49-2.93l.39-.32L2.24,12a4,4,0,0,0,1.08-1.51,4.18,4.18,0,0,0,.25-2.42,4.33,4.33,0,0,1,.14-2.24,3.59,3.59,0,0,1,.85-1.27,3.73,3.73,0,0,1,1.27-.85,4.33,4.33,0,0,1,2.24-.14,4.26,4.26,0,0,0,2.42-.25A3.86,3.86,0,0,0,12,2.24l.31-.36.32-.39A3.44,3.44,0,0,1,15.56,0,3.45,3.45,0,0,1,18.5,1.49a4.61,4.61,0,0,1,.31.39c.13.14.22.25.31.36a4.07,4.07,0,0,0,1.51,1.08,4.2,4.2,0,0,0,2.42.25,4.32,4.32,0,0,1,2.24.14,3.59,3.59,0,0,1,1.27.85,3.59,3.59,0,0,1,.85,1.27,4.32,4.32,0,0,1,.14,2.24,4.26,4.26,0,0,0,.25,2.42A3.88,3.88,0,0,0,28.89,12l.36.31.38.31a3.46,3.46,0,0,1,1.49,2.94,3.46,3.46,0,0,1-1.49,2.94l-.38.31-.36.31a3.91,3.91,0,0,0-1.09,1.51,4.26,4.26,0,0,0-.25,2.42,4.33,4.33,0,0,1-.14,2.24,3.59,3.59,0,0,1-.85,1.27,3.43,3.43,0,0,1-1.27.84,4.2,4.2,0,0,1-2.24.15,4.36,4.36,0,0,0-2.42.24,4,4,0,0,0-1.51,1.09c-.09.11-.18.22-.31.36.06-.06-.24.3-.31.39a3.45,3.45,0,0,1-2.94,1.49,3.44,3.44,0,0,1-2.93-1.49l-.32-.39c-.12-.15-.21-.25-.31-.36a4,4,0,0,0-1.51-1.08Z"/><path class="cls-1" d="M10.86,26.9c2.58,1.07,2.35,3.25,4.7,3.25S17.68,28,20.25,26.9s4,.64,5.62-1-.05-3,1-5.62,3.25-2.35,3.25-4.69-2.18-2.12-3.25-4.7.64-3.95-1-5.61-3,0-5.62-1S17.91,1,15.56,1s-2.12,2.19-4.7,3.25-3.95-.63-5.61,1,0,3-1,5.61S1,13.21,1,15.56s2.18,2.12,3.25,4.7-.64,3.95,1,5.61,3,0,5.61,1Z"/><path class="cls-2" d="M15.56,25.28a9.73,9.73,0,1,1,9.73-9.72A9.72,9.72,0,0,1,15.56,25.28Z"/><path class="cls-2" d="M15.56,23.34a7.78,7.78,0,1,0-7.78-7.78A7.78,7.78,0,0,0,15.56,23.34Z"/></g></g></svg>